<?xml version="1.0" encoding="UTF-8" standalone="no"?>
<!-- Generator: Adobe Illustrator 15.0.2, SVG Export Plug-In . SVG Version: 6.00 Build 0)  -->

<svg
   xmlns:dc="http://purl.org/dc/elements/1.1/"
   xmlns:cc="http://creativecommons.org/ns#"
   xmlns:rdf="http://www.w3.org/1999/02/22-rdf-syntax-ns#"
   xmlns:svg="http://www.w3.org/2000/svg"
   xmlns="http://www.w3.org/2000/svg"
   xmlns:sodipodi="http://sodipodi.sourceforge.net/DTD/sodipodi-0.dtd"
   xmlns:inkscape="http://www.inkscape.org/namespaces/inkscape"
   version="1.1"
   id="Layer_1"
   x="0px"
   y="0px"
   width="1024px"
   height="1024px"
   viewBox="0 0 1024 1024"
   enable-background="new 0 0 1024 1024"
   xml:space="preserve"
   inkscape:version="0.48.4 r9939"
   sodipodi:docname="e-mail-sign-512px.svg"><metadata
     id="metadata19"><rdf:RDF><cc:Work
         rdf:about=""><dc:format>image/svg+xml</dc:format><dc:type
           rdf:resource="http://purl.org/dc/dcmitype/StillImage" /><dc:title></dc:title></cc:Work></rdf:RDF></metadata><defs
     id="defs17" /><sodipodi:namedview
     pagecolor="#ffffff"
     bordercolor="#666666"
     borderopacity="1"
     objecttolerance="10"
     gridtolerance="10"
     guidetolerance="10"
     inkscape:pageopacity="0"
     inkscape:pageshadow="2"
     inkscape:window-width="1266"
     inkscape:window-height="847"
     id="namedview15"
     showgrid="false"
     inkscape:zoom="0.921875"
     inkscape:cx="512"
     inkscape:cy="512"
     inkscape:window-x="65"
     inkscape:window-y="24"
     inkscape:window-maximized="0"
     inkscape:current-layer="g3" /><g
     id="g3"><polygon
       points="155.2,436.4 155.2,845.8 438.4,626.4  "
       id="polygon5" /><polygon
       points="176.6,860.2 847.4,860.2 512,600.6  "
       id="polygon7" /><path
       d="M819.2,0H204.8C92.2,0,0,92.2,0,204.8v614.4C0,931.8,92.2,1024,204.8,1024h614.4c112.6,0,204.8-92.2,204.8-204.8V204.8   C1024,92.2,931.8,0,819.2,0z M896,883.4H128v-456l384-286.8l384,286.6V883.4z"
       fill="#000000"
       id="path9" /><polygon
       points="869,845.8 869,436.4 585.6,626.4  "
       id="polygon13" /><path
       style="fill:#ffffff"
       d="M 193.30169,1022.9044 C 158.76033,1020.7687 126.93595,1010.6508 97.672635,992.50114 71.620251,976.34294 47.871483,952.59263 31.708794,926.533 16.775799,902.45606 7.9009786,878.50166 2.7137101,848.27119 0.86072581,837.47233 0.75932149,820.02474 0.75932149,512 c 0,-308.02474 0.10140432,-325.47233 1.95438861,-336.27119 C 10.674266,129.33611 29.408137,92.406165 61.015625,60.798676 92.587398,29.226904 130.34579,10.170537 176.48814,2.5206095 187.8481,0.63724334 203.92275,0.54237234 511.67458,0.54237234 c 307.76831,0 323.82586,0.0947829 335.18644,1.97850336 30.97637,5.1362561 56.04122,14.2998953 79.44683,29.0455433 14.50944,9.141016 21.8462,14.935913 34.77196,27.464435 31.9014,30.920973 53.06299,71.666406 60.04509,115.613216 2.1747,13.68791 2.1747,661.02395 0,674.71186 -6.9821,43.94681 -28.14369,84.69224 -60.04509,115.61321 -31.57667,30.60624 -64.77402,47.38516 -110.96456,56.08466 -11.88282,2.238 -13.24075,2.2481 -328.13559,2.4346 -173.91186,0.1031 -321.81695,-0.1597 -328.67797,-0.584 z m 702.91526,-367.62301 0,-228.78642 L 704.14529,283.1631 512.07364,139.83122 478.13947,165.10205 C 459.47568,179.001 372.89311,243.57966 285.73378,308.61017 l -158.47151,118.23729 -0.0651,228.61017 -0.065,228.61017 384.54238,0 384.54237,0 0,-228.78641 z"
       id="path3008"
       inkscape:connector-curvature="0" /><path
       style="fill:#ffffff"
       d="m 155.33559,640.65505 0,-203.27715 46.40263,31.07376 c 169.51915,113.51939 235.43641,158.063 234.7684,158.64482 -3.56663,3.10654 -280.1232,216.83572 -280.5763,216.83572 -0.3271,0 -0.59473,-91.47472 -0.59473,-203.27715 z"
       id="path3010"
       inkscape:connector-curvature="0" /><path
       style="fill:#ffffff"
       d="m 178.20565,859.79559 c 0.24859,-0.22428 75.35672,-58.36865 166.90697,-129.20971 152.99699,-118.38821 166.63472,-128.68989 168.67797,-127.41623 2.18223,1.3603 323.96277,250.26077 329.27382,254.69659 l 2.71186,2.26497 -334.0113,0.0361 c -183.70621,0.0198 -333.80791,-0.14745 -333.55932,-0.37174 z"
       id="path3012"
       inkscape:connector-curvature="0" /><path
       style="fill:#ffffff"
       d="M 727.67245,735.55261 C 650.78314,676.03506 587.89614,626.9558 587.92356,626.48757 c 0.0274,-0.46823 62.93685,-43.02667 139.79873,-94.57431 l 139.7489,-93.72299 0.27675,101.44724 c 0.15221,55.79598 0.15221,147.05059 0,202.78801 l -0.27675,101.34079 -139.79874,-108.2137 z"
       id="path3014"
       inkscape:connector-curvature="0" /></g></svg>