<?xml version="1.0" encoding="UTF-8" standalone="no"?>
<svg
   xmlns:dc="http://purl.org/dc/elements/1.1/"
   xmlns:cc="http://creativecommons.org/ns#"
   xmlns:rdf="http://www.w3.org/1999/02/22-rdf-syntax-ns#"
   xmlns:svg="http://www.w3.org/2000/svg"
   xmlns="http://www.w3.org/2000/svg"
   xmlns:sodipodi="http://sodipodi.sourceforge.net/DTD/sodipodi-0.dtd"
   xmlns:inkscape="http://www.inkscape.org/namespaces/inkscape"
   height="1000"
   width="857.143"
   id="svg3807"
   version="1.1"
   inkscape:version="0.48.4 r9939"
   sodipodi:docname="github-squared-512px.svg">
  <metadata
     id="metadata3815">
    <rdf:RDF>
      <cc:Work
         rdf:about="">
        <dc:format>image/svg+xml</dc:format>
        <dc:type
           rdf:resource="http://purl.org/dc/dcmitype/StillImage" />
        <dc:title></dc:title>
      </cc:Work>
    </rdf:RDF>
  </metadata>
  <defs
     id="defs3813" />
  <sodipodi:namedview
     pagecolor="#ffffff"
     bordercolor="#666666"
     borderopacity="1"
     objecttolerance="10"
     gridtolerance="10"
     guidetolerance="10"
     inkscape:pageopacity="0"
     inkscape:pageshadow="2"
     inkscape:window-width="1920"
     inkscape:window-height="999"
     id="namedview3811"
     showgrid="false"
     inkscape:zoom="0.944"
     inkscape:cx="428.5715"
     inkscape:cy="500"
     inkscape:window-x="-9"
     inkscape:window-y="-9"
     inkscape:window-maximized="1"
     inkscape:current-layer="svg3807" />
  <path
     d="M219.852 754.48q-4.464 5.022 -11.16 -1.674 -7.254 -6.138 -2.232 -10.602 4.464 -5.022 11.16 1.674 6.696 6.138 2.232 10.602zm-23.436 -34.038q5.022 6.696 0 10.602 -4.464 3.348 -9.486 -3.906t0 -10.044q5.022 -3.906 9.486 3.348zm-34.038 -33.48q-2.79 3.906 -7.254 1.116 -5.58 -2.79 -3.906 -6.696 1.674 -2.79 7.254 -1.116 5.58 2.79 3.906 6.696zm17.298 18.972q-3.348 3.906 -8.928 -1.674 -5.022 -6.138 -1.116 -8.928 3.348 -3.348 8.928 1.674 5.022 6.138 1.116 8.928zm71.982 62.496q-2.232 6.696 -10.602 3.348 -9.486 -2.232 -7.254 -8.37t10.602 -3.906q8.928 2.79 7.254 8.928zm35.154 2.79q0 6.138 -8.928 6.138 -9.486 1.116 -9.486 -6.138 0 -6.138 8.928 -6.138 9.486 -1.116 9.486 6.138zm32.364 -5.58q1.116 5.58 -7.812 7.812t-10.044 -4.464 7.812 -8.37q8.928 -1.116 10.044 5.022zm537.912 -533.448v535.68q0 66.402 -47.151 113.553t-113.553 47.151h-124.992q-8.928 0 -13.671 -.558t-10.881 -2.79 -8.928 -8.091 -2.79 -15.345v-133.362q0 -54.126 -29.016 -79.236 31.806 -3.348 57.195 -10.044t52.452 -21.762 45.198 -37.107 29.574 -58.59 11.439 -83.979q0 -67.518 -44.082 -114.948 20.646 -50.778 -4.464 -113.832 -15.624 -5.022 -45.198 6.138t-51.336 24.552l-21.204 13.392q-51.894 -14.508 -107.136 -14.508t-107.136 14.508q-8.928 -6.138 -23.715 -15.066t-46.593 -21.483 -47.988 -7.533q-24.552 63.054 -3.906 113.832 -44.082 47.43 -44.082 114.948 0 47.43 11.439 83.7t29.295 58.59 44.919 37.386 52.452 21.762 57.195 10.044q-22.32 20.088 -27.342 57.474 -11.718 5.58 -25.11 8.37t-31.806 2.79 -36.549 -11.997 -30.969 -34.875q-10.602 -17.856 -27.063 -29.016t-27.621 -13.392l-11.16 -1.674q-11.718 0 -16.182 2.511t-2.79 6.417 5.022 7.812 7.254 6.696l3.906 2.79q12.276 5.58 24.273 21.204t17.577 28.458l5.58 12.834q7.254 21.204 24.552 34.317t37.386 16.74 38.781 3.906 30.969 -1.953l12.834 -2.232q0 21.204 .279 57.474t.279 37.944q0 12.276 -6.138 18.693t-12.276 7.254 -18.414 .837h-124.992q-66.402 0 -113.553 -47.151t-47.151 -113.553v-535.68q0 -66.402 47.151 -113.553t113.553 -47.151h535.68q66.402 0 113.553 47.151t47.151 113.553z"
     fill="#000000"
     id="path3809" />
  <path
     style="fill:#ffffff;fill-opacity:1;fill-rule:nonzero;stroke:#ffffff;stroke-width:6.35593224;stroke-miterlimit:4;stroke-opacity:1;stroke-dasharray:none;stroke-dashoffset:0"
     d="M 137.68167,927.4251 C 99.055057,922.12056 65.449803,903.73388 38.960418,873.41102 18.033767,849.45592 6.0765944,823.55668 1.0576245,791.31356 -0.4715572,781.48971 -0.4318751,220.26253 1.0987956,209.02792 6.9061028,166.40422 29.337973,129.36791 66.177435,101.57934 88.034088,85.092525 113.49303,75.210658 142.14204,72.093731 c 14.32386,-1.558393 558.3232,-1.558393 572.64706,0 45.43291,4.942964 83.04596,27.029909 112.64666,66.147799 14.48831,19.14658 24.62635,44.05304 28.67421,70.44491 1.10927,7.23242 1.38102,64.76462 1.38102,292.37288 0,262.94337 -0.13082,284.09494 -1.81506,293.4448 -6.51035,36.14166 -20.6411,62.65546 -47.41759,88.97046 -23.07368,22.676 -49.35123,36.47252 -82.12328,43.1172 -7.24236,1.46842 -19.93239,1.77847 -87.27565,2.13233 -54.40678,0.28589 -80.4774,0.0562 -84.21611,-0.74178 -9.42435,-2.01165 -14.00654,-4.86085 -16.73905,-10.40829 l -2.44715,-4.96811 -0.6006,-80.50847 c -0.52075,-69.80714 -0.84124,-81.77574 -2.41109,-90.04237 -4.05651,-21.36115 -10.71187,-35.52163 -22.77786,-48.46399 -2.58007,-2.76748 -4.25527,-5.03178 -3.72265,-5.03178 0.53262,0 7.6291,-0.93897 15.76996,-2.0866 35.82133,-5.0498 55.83021,-10.80913 81.00919,-23.31758 22.80469,-11.32895 34.37326,-19.39715 48.91306,-34.11316 31.66831,-32.0521 49.70308,-86.48638 49.57029,-149.61791 -0.0905,-43.03206 -11.85892,-77.29975 -37.19567,-108.30782 -3.41161,-4.17526 -6.20294,-8.28813 -6.20294,-9.1397 0,-0.85158 0.71671,-3.26364 1.59268,-5.36013 4.50723,-10.78732 6.19926,-21.96616 6.27661,-41.46812 0.0809,-20.41011 -0.72619,-26.62675 -5.78084,-44.52452 -4.55055,-16.11281 -6.71102,-21.00555 -9.63776,-21.82623 -11.15593,-3.1282 -33.0223,2.40489 -63.95493,16.1832 -12.65643,5.63755 -22.63867,11.15303 -39.42855,21.78538 l -10.82686,6.85622 -13.53754,-3.21041 c -32.12234,-7.61778 -60.02141,-10.83075 -94.04603,-10.83075 -34.07738,0 -58.13019,2.71329 -91.30934,10.30023 l -16.09747,3.68093 -11.44491,-7.28663 c -16.73318,-10.65353 -23.41172,-14.18615 -41.23318,-21.81035 -30.98669,-13.25642 -48.12435,-17.81794 -60.16074,-16.01298 l -4.67361,0.70085 -3.73692,11.28143 c -6.86164,20.71465 -8.52886,31.07914 -8.5456,53.12465 -0.0156,20.45929 1.03699,27.39841 6.58777,43.43221 l 2.01701,5.82627 -6.07064,7.41525 c -31.22669,38.14328 -42.24313,79.81473 -36.56645,138.31842 3.21206,33.10332 9.68767,57.29841 22.24914,83.13039 13.40192,27.56029 31.4987,47.10389 58.30697,62.96855 28.36975,16.78872 55.29593,25.78519 93.68558,31.30189 10.16054,1.46009 18.68061,2.86162 18.93349,3.11451 0.25288,0.25288 -2.19523,3.39368 -5.44025,6.97955 -9.52633,10.52692 -18.40018,30.29516 -20.41402,45.47616 -0.70442,5.31027 -0.90136,5.57712 -5.61183,7.60409 -9.83958,4.23408 -23.85132,7.24588 -39.30975,8.44954 -18.44116,1.43593 -28.41832,-0.004 -40.57261,-5.85437 -16.15811,-7.77794 -26.08602,-17.41785 -40.30456,-39.13529 -9.3118,-14.22288 -15.73276,-21.50461 -24.40016,-27.67118 -17.79252,-12.65878 -28.1593,-16.72754 -43.02775,-16.88757 -16.27749,-0.17519 -20.13307,3.33998 -13.78445,12.56739 3.36693,4.89367 11.39741,11.53869 17.95109,14.85411 10.54636,5.33525 29.48431,30.31036 38.40403,50.64668 8.90862,20.31104 12.56343,26.90266 18.63913,33.61653 9.45486,10.44795 22.59081,18.93292 36.70729,23.7105 17.15315,5.80529 58.50379,8.02434 80.93271,4.34316 6.02099,-0.98821 11.26464,-1.47963 11.65254,-1.09205 0.38791,0.38757 0.70529,24.14244 0.70529,52.78861 l 0,52.08394 -2.64831,4.67226 c -3.46156,6.10703 -9.33385,10.73039 -15.02669,11.83078 -7.87333,1.52187 -155.56469,0.97011 -167.1767,-0.62455 l 0,0 z"
     id="path3817"
     inkscape:connector-curvature="0" />
  <path
     style="fill:#ffffff;fill-opacity:1;fill-rule:nonzero;stroke:#ffffff;stroke-width:6.35593224;stroke-miterlimit:4;stroke-opacity:1;stroke-dasharray:none;stroke-dashoffset:0"
     d="m 153.1847,687.42311 c -2.99225,-2.3537 -3.57245,-5.07402 -1.51998,-7.1265 2.9459,-2.9459 11.44068,0.29917 11.44068,4.37042 0,5.12049 -5.11008,6.54012 -9.9207,2.75608 z"
     id="path3819"
     inkscape:connector-curvature="0" />
  <path
     style="fill:#ffffff;fill-opacity:1;fill-rule:nonzero;stroke:#ffffff;stroke-width:6.35593224;stroke-miterlimit:4;stroke-opacity:1;stroke-dasharray:none;stroke-dashoffset:0"
     d="m 171.04524,705.07004 c -5.15419,-5.15419 -4.35007,-11.21411 1.48806,-11.21411 3.73313,0 6.92584,2.36104 8.5743,6.34078 1.1693,2.82293 1.09772,3.52047 -0.54785,5.3388 -2.5552,2.82346 -6.41438,2.63466 -9.51451,-0.46547 l 0,0 z"
     id="path3821"
     inkscape:connector-curvature="0" />
  <path
     style="fill:#ffffff;fill-opacity:1;fill-rule:nonzero;stroke:#ffffff;stroke-width:6.35593224;stroke-miterlimit:4;stroke-opacity:1;stroke-dasharray:none;stroke-dashoffset:0"
     d="m 191.48237,731.79663 c -3.3903,-1.19685 -7.19053,-6.86672 -7.19053,-10.72812 0,-2.89544 3.38443,-6.02614 6.51452,-6.02614 0.9932,0 3.28742,1.78761 5.09828,3.97246 5.71428,6.89444 2.79575,15.32992 -4.42227,12.7818 z"
     id="path3823"
     inkscape:connector-curvature="0" />
  <path
     style="fill:#ffffff;fill-opacity:1;fill-rule:nonzero;stroke:#ffffff;stroke-width:6.35593224;stroke-miterlimit:4;stroke-opacity:1;stroke-dasharray:none;stroke-dashoffset:0"
     d="m 211.30455,755.44432 c -5.21263,-3.21981 -7.06975,-5.94208 -6.69527,-9.8143 0.24366,-2.51952 1.15316,-3.96349 3.22571,-5.12135 2.64012,-1.47493 3.20712,-1.43977 6.64579,0.41208 3.60497,1.9414 7.94665,7.43058 7.94665,10.04693 0,1.68396 -4.85998,6.44856 -6.57261,6.44361 -0.75476,-0.002 -2.80239,-0.88731 -4.55027,-1.96697 z"
     id="path3825"
     inkscape:connector-curvature="0" />
  <path
     style="fill:#ffffff;fill-opacity:1;fill-rule:nonzero;stroke:#ffffff;stroke-width:6.35593224;stroke-miterlimit:4;stroke-opacity:1;stroke-dasharray:none;stroke-dashoffset:0"
     d="m 239.90625,772.0239 c -6.88807,-2.41436 -8.91732,-7.28031 -4.76695,-11.43068 5.08814,-5.08814 16.94915,-0.64026 16.94915,6.35593 0,5.72649 -4.71694,7.69143 -12.1822,5.07475 z"
     id="path3827"
     inkscape:connector-curvature="0" />
  <path
     style="fill:#ffffff;fill-opacity:1;fill-rule:nonzero;stroke:#ffffff;stroke-width:6.35593224;stroke-miterlimit:4;stroke-opacity:1;stroke-dasharray:none;stroke-dashoffset:0"
     d="m 269.64293,775.87772 c -2.47084,-2.47083 -2.10617,-7.43985 0.6897,-9.39816 2.6846,-1.88037 11.55856,-2.21468 14.66445,-0.55246 2.69643,1.44309 2.76464,7.4613 0.11177,9.86211 -2.60993,2.36196 -13.13225,2.42218 -15.46592,0.0885 l 0,0 z"
     id="path3829"
     inkscape:connector-curvature="0" />
  <path
     style="fill:#ffffff;fill-opacity:1;fill-rule:nonzero;stroke:#ffffff;stroke-width:6.35593224;stroke-miterlimit:4;stroke-opacity:1;stroke-dasharray:none;stroke-dashoffset:0"
     d="m 302.57043,772.42718 c -4.12296,-4.55582 -0.75934,-11.03041 6.32791,-12.18051 6.83583,-1.1093 11.91367,2.86501 10.55861,8.26398 -1.26119,5.02502 -13.34667,7.82803 -16.88652,3.91653 z"
     id="path3831"
     inkscape:connector-curvature="0" />
</svg>
