<?xml version="1.0" encoding="UTF-8" standalone="no"?>
<svg
   xmlns:dc="http://purl.org/dc/elements/1.1/"
   xmlns:cc="http://creativecommons.org/ns#"
   xmlns:rdf="http://www.w3.org/1999/02/22-rdf-syntax-ns#"
   xmlns:svg="http://www.w3.org/2000/svg"
   xmlns="http://www.w3.org/2000/svg"
   xmlns:sodipodi="http://sodipodi.sourceforge.net/DTD/sodipodi-0.dtd"
   xmlns:inkscape="http://www.inkscape.org/namespaces/inkscape"
   height="1000"
   width="1000"
   version="1"
   id="svg2995"
   inkscape:version="0.48.4 r9939"
   sodipodi:docname="linkedin-rect-512px_grey.svg">
  <metadata
     id="metadata3003">
    <rdf:RDF>
      <cc:Work
         rdf:about="">
        <dc:format>image/svg+xml</dc:format>
        <dc:type
           rdf:resource="http://purl.org/dc/dcmitype/StillImage" />
        <dc:title></dc:title>
      </cc:Work>
    </rdf:RDF>
  </metadata>
  <defs
     id="defs3001" />
  <sodipodi:namedview
     pagecolor="#ffffff"
     bordercolor="#666666"
     borderopacity="1"
     objecttolerance="10"
     gridtolerance="10"
     guidetolerance="10"
     inkscape:pageopacity="0"
     inkscape:pageshadow="2"
     inkscape:window-width="1920"
     inkscape:window-height="999"
     id="namedview2999"
     showgrid="false"
     inkscape:zoom="0.785"
     inkscape:cx="268.78981"
     inkscape:cy="500"
     inkscape:window-x="-9"
     inkscape:window-y="-9"
     inkscape:window-maximized="1"
     inkscape:current-layer="svg2995" />
  <path
     d="M195.877 .25c-107.717 0 -195.877 88.158 -195.877 195.877l0 607.841c0 107.717 88.158 195.845 195.877 195.845l607.841 0c107.718 0 195.845 -88.127 195.845 -195.845l0 -607.841c0 -107.717 -88.127 -195.877 -195.845 -195.877l-607.841 0zm49.266 164.948c51.648 0 83.461 33.906 84.443 78.475 0 43.585 -32.797 78.444 -85.442 78.444l-.969 0c-50.665 0 -83.412 -34.857 -83.412 -78.444 0 -44.568 33.738 -78.475 85.379 -78.475zm445.08 208.31c99.329 0 173.79 64.922 173.79 204.436l0 260.449l-150.953 0l0 -242.987c0 -61.06 -21.847 -102.718 -76.476 -102.718 -41.704 0 -66.562 28.078 -77.476 55.202 -3.987 9.704 -4.967 23.257 -4.967 36.832l0 253.671l-150.953 0s1.981 -411.613 0 -454.233l150.984 0l0 64.324c20.06 -30.95 55.942 -74.977 136.051 -74.977zm-521.556 10.685l150.953 0l0 454.202l-150.953 0l0 -454.202z"
     fill="#000000"
     id="path2997" />
  <path
     style="fill:#ffffff;fill-opacity:1;fill-rule:nonzero;stroke:#ffffff;stroke-width:7.64331198000000000;stroke-miterlimit:4;stroke-opacity:1;stroke-dasharray:none;stroke-dashoffset:0;opacity:1"
     d="M 176.94268,999.28897 C 89.403357,991.26324 17.313353,924.05721 2.3487118,836.52345 c -2.40743753,-14.082 -2.47610034,-23.40433 -2.47610034,-336.17955 0,-289.03965 0.20743567,-323.00069 2.04344164,-334.54906 C 13.329473,94.005118 64.112746,33.513473 132.35669,10.417529 c 16.57549,-5.6096798 28.66293,-8.1011082 47.31168,-9.75175168 19.75693,-1.74873192 620.65155,-1.74873192 640.40848,0 34.02326,3.01147658 63.77635,13.22561168 90.54618,31.08420568 45.18827,30.145828 73.9238,72.268157 85.66622,125.574857 l 2.94642,13.3758 0,329.29936 0,329.29936 -2.94642,13.3758 c -4.1688,18.92499 -9.58245,34.03955 -18.25088,50.95541 -30.84768,60.19712 -89.46289,99.64851 -157.14665,105.76869 -15.53875,1.40504 -628.56578,1.30004 -643.94904,-0.11032 l 0,3e-5 z m 142.67515,-387.824 0,-226.11465 -75.15923,0 -75.15924,0 0,226.11465 0,226.11465 75.15924,0 75.15923,0 0,-226.11465 z m 234.41702,90.12739 c 0.0247,-152.24679 -0.3466,-145.60892 9.16165,-163.75723 6.92986,-13.22699 23.32582,-30.24787 35.00229,-36.33639 11.07833,-5.77663 25.30543,-9.14661 38.5018,-9.11994 38.26312,0.0773 61.34033,18.99738 72.42479,59.37802 l 3.45165,12.57439 0.37922,136.6242 0.37924,136.62421 75.11569,0 75.1157,0 -0.0115,-132.80255 c -0.0112,-136.62685 -0.5957,-157.42229 -5.14678,-183.12102 -13.67605,-77.22488 -57.87298,-127.75143 -124.77803,-142.64802 -25.65569,-5.71232 -54.48568,-6.13756 -79.36597,-1.17067 -41.01447,8.1878 -70.53966,28.89619 -97.95575,68.70426 -2.06057,2.99195 -2.16563,1.62413 -2.2293,-29.0257 l -0.0668,-32.1656 -74.84077,4.6e-4 -74.84076,4.6e-4 -0.17466,226.11419 -0.17466,226.11419 75.01542,0 75.01543,0 0.0221,-135.98726 z M 271.00464,317.82693 c 11.5583,-3.22918 20.33747,-7.60377 29.70029,-14.7994 27.85787,-21.40968 35.98487,-63.39403 18.66443,-96.4211 -2.35137,-4.48368 -8.05965,-11.8526 -13.24342,-17.09616 -15.36858,-15.54586 -35.62362,-23.26823 -61.0304,-23.26823 -20.44667,0 -36.42834,4.56866 -51.85358,14.82335 -30.93204,20.56357 -41.47285,61.66776 -24.77353,96.60507 8.63231,18.05999 23.48279,31.23799 43.38222,38.49643 16.25391,5.92872 41.35377,6.6331 59.15399,1.66004 l 0,0 z"
     id="path3005"
     inkscape:connector-curvature="0" />
</svg>
