<?xml version="1.0" encoding="UTF-8" standalone="no"?>
<svg
   xmlns:dc="http://purl.org/dc/elements/1.1/"
   xmlns:cc="http://creativecommons.org/ns#"
   xmlns:rdf="http://www.w3.org/1999/02/22-rdf-syntax-ns#"
   xmlns:svg="http://www.w3.org/2000/svg"
   xmlns="http://www.w3.org/2000/svg"
   xmlns:sodipodi="http://sodipodi.sourceforge.net/DTD/sodipodi-0.dtd"
   xmlns:inkscape="http://www.inkscape.org/namespaces/inkscape"
   height="1000"
   width="857.143"
   id="svg3785"
   version="1.1"
   inkscape:version="0.48.4 r9939"
   sodipodi:docname="twitter-squared-512px.svg">
  <metadata
     id="metadata3793">
    <rdf:RDF>
      <cc:Work
         rdf:about="">
        <dc:format>image/svg+xml</dc:format>
        <dc:type
           rdf:resource="http://purl.org/dc/dcmitype/StillImage" />
        <dc:title></dc:title>
      </cc:Work>
    </rdf:RDF>
  </metadata>
  <defs
     id="defs3791" />
  <sodipodi:namedview
     pagecolor="#ffffff"
     bordercolor="#666666"
     borderopacity="1"
     objecttolerance="10"
     gridtolerance="10"
     guidetolerance="10"
     inkscape:pageopacity="0"
     inkscape:pageshadow="2"
     inkscape:window-width="1920"
     inkscape:window-height="999"
     id="namedview3789"
     showgrid="false"
     inkscape:zoom="0.944"
     inkscape:cx="428.5715"
     inkscape:cy="651.9401"
     inkscape:window-x="-9"
     inkscape:window-y="-9"
     inkscape:window-maximized="1"
     inkscape:current-layer="svg3785" />
  <path
     d="M714.24 340.444q-31.248 13.95 -67.518 18.972 37.944 -22.32 51.894 -65.286 -36.27 21.204 -74.772 28.458 -34.038 -36.828 -85.374 -36.828 -48.546 0 -82.863 34.317t-34.317 82.863q0 16.182 2.79 26.784 -71.982 -3.906 -135.036 -36.27t-107.136 -86.49q-16.182 27.9 -16.182 59.148 0 63.612 50.778 97.65 -26.226 -.558 -55.8 -14.508v1.116q0 41.85 27.9 74.493t68.634 40.455q-16.182 4.464 -28.458 4.464 -7.254 0 -21.762 -2.232 11.718 35.154 41.571 58.032t67.797 23.436q-64.728 50.22 -145.638 50.22 -14.508 0 -27.9 -1.674 82.584 52.452 179.676 52.452 62.496 0 117.18 -19.809t93.744 -53.01 67.239 -76.446 41.85 -90.396 13.671 -94.023q0 -10.044 -.558 -15.066 35.154 -25.11 58.59 -60.822zm142.848 -108.252v535.68q0 66.402 -47.151 113.553t-113.553 47.151h-535.68q-66.402 0 -113.553 -47.151t-47.151 -113.553v-535.68q0 -66.402 47.151 -113.553t113.553 -47.151h535.68q66.402 0 113.553 47.151t47.151 113.553z"
     fill="#000000"
     id="path3787" />
  <path
     style="fill:#ffffff;fill-opacity:1;fill-rule:nonzero;stroke:#ffffff;stroke-width:6.35593224;stroke-miterlimit:4;stroke-opacity:1;stroke-dasharray:none;stroke-dashoffset:0"
     d="M 133.97404,926.97679 C 99.715935,921.52479 70.062947,905.77827 44.931883,879.69302 20.174943,853.9961 6.6253338,827.12635 1.4697524,793.50481 -0.78617764,778.79302 -0.73466493,221.38032 1.5240144,206.34228 6.7052094,171.84645 22.358243,142.19148 48.918609,116.55232 72.165587,94.111625 96.994959,80.696596 127.08845,74.318038 c 17.45404,-3.699523 37.1955,-3.919867 314.61865,-3.511611 242.29684,0.356564 273.72233,0.586955 281.25,2.061935 23.59529,4.62329 38.08032,9.974499 56.14406,20.741317 20.77845,12.384901 43.39225,35.000741 55.82231,55.827331 13.95958,23.38928 20.01123,43.41628 22.08693,73.09323 0.74796,10.69388 0.98202,105.43329 0.71577,289.72457 -0.42413,293.58536 -0.10286,275.54938 -5.29218,297.13983 -4.23616,17.62493 -13.97136,37.84381 -26.01273,54.02543 -6.75598,9.07891 -23.72057,26.16969 -33.01925,33.26485 -21.78452,16.6222 -44.47497,26.26606 -71.50424,30.39061 -13.55241,2.06805 -574.90095,1.97377 -587.92373,-0.0987 l 0,-10e-6 z M 361.72828,747.4477 c 49.32709,-5.74957 93.76244,-20.53937 134.91261,-44.90411 33.13763,-19.62057 69.02875,-53.72307 95.13794,-90.39677 30.27812,-42.52949 49.38188,-87.76397 58.51654,-138.55726 3.35978,-18.68204 4.4769,-30.42678 4.98755,-52.43644 l 0.47927,-20.65678 9.23304,-7.34675 c 12.48266,-9.93247 29.98397,-27.79777 39.09007,-39.90304 4.11812,-5.47448 7.35128,-10.10892 7.18477,-10.29876 -0.1665,-0.18984 -4.99381,1.41285 -10.72735,3.56152 -15.5441,5.82526 -52.2134,14.66998 -53.88595,12.99743 -0.23125,-0.23125 3.88194,-3.45709 9.14043,-7.16853 11.25943,-7.9469 20.23972,-17.33204 28.22906,-29.50167 5.53004,-8.42354 13.66565,-25.28902 12.67624,-26.27841 -0.25945,-0.25946 -3.9922,1.42298 -8.29501,3.73875 -17.17479,9.24347 -46.20694,19.72703 -60.26286,21.76102 -4.73196,0.68475 -4.82045,0.63905 -13.23838,-6.83715 -21.13763,-18.77291 -41.88979,-27.09152 -70.56539,-28.2865 -21.20532,-0.88369 -35.31684,1.61948 -53.37529,9.46795 -23.32452,10.13717 -47.09837,33.46988 -58.24829,57.16745 -8.46606,17.99344 -12.20782,40.49366 -10.13799,60.9627 0.63334,6.26325 1.42413,12.4064 1.75733,13.65147 0.68001,2.54101 1.20134,2.53315 -19.7058,0.29689 -63.18613,-6.75847 -123.68741,-31.88164 -174.02274,-72.26299 -12.95583,-10.39376 -33.1975,-29.82154 -41.6773,-40.0015 -3.36792,-4.04318 -6.42934,-7.35124 -6.80315,-7.35124 -1.03622,0 -7.95114,15.53957 -10.37047,23.30509 -8.24226,26.45573 -6.62218,58.07003 4.26136,83.15678 6.82031,15.72095 20.99681,33.14832 35.51966,43.66485 3.04163,2.20255 5.54428,4.3397 5.56144,4.74922 0.0353,0.84213 -7.98009,0.20997 -17.44761,-1.37608 -8.50578,-1.42493 -23.83319,-5.90151 -30.88655,-9.02084 -3.14626,-1.39142 -6.22151,-2.52987 -6.8339,-2.52987 -1.21276,0 -0.55726,9.94405 1.32675,20.12712 6.29365,34.01698 30.33807,66.01203 61.81743,82.25822 9.63679,4.97347 21.188,9.29242 27.8072,10.39704 2.47617,0.41322 4.50212,1.11715 4.50212,1.56429 0,0.44713 -3.93273,1.66765 -8.7394,2.71225 -9.26629,2.01379 -26.36695,2.5923 -35.09389,1.18723 l -5.16804,-0.83208 0.73437,2.92596 c 0.4039,1.60927 2.62614,6.71708 4.9383,11.35067 18.0138,36.09995 54.8245,62.2382 91.52781,64.99136 4.66102,0.34963 9.09085,0.95971 9.84407,1.35574 1.42734,0.75047 -12.54756,11.11731 -24.67457,18.30406 -38.49357,22.81216 -84.02606,34.16689 -129.50212,32.29478 -7.71981,-0.31781 -14.03602,-0.43866 -14.03602,-0.26856 0,0.60829 18.73168,11.03894 29.13136,16.22164 38.8017,19.33695 80.17271,30.28482 126.58898,33.49879 9.84747,0.68187 48.71152,-0.2799 58.79237,-1.45494 l 0,0 z"
     id="path3795"
     inkscape:connector-curvature="0" />
</svg>
